<svg xmlns="http://www.w3.org/2000/svg" viewBox="0 0 92 55">
    <title>Asset 2</title>
    <g id="Layer_2" data-name="Layer 2">
        <g id="Layer_1-2" data-name="Layer 1">
            <path id="_Compound_Path_" data-name="&lt;Compound Path&gt;"
                  d="M72.82,6.39,53.44,48.16c-1.71,4.29-4.68,6.84-8,6.84a7.09,7.09,0,0,1-6.3-3.64,8.39,8.39,0,0,1,.4-8.49h0L64.91,2.12a4.5,4.5,0,0,1,7.91,4.27ZM79.6,18.55A4,4,0,1,0,73.71,24,39.06,39.06,0,0,1,84,50.5a4,4,0,0,0,8,0A47,47,0,0,0,79.6,18.55Zm-30.38-6.7a4,4,0,1,0,.68-8c-1.29-.11-2.6-.16-3.9-.16-25.36,0-46,21-46,46.78a4,4,0,0,0,8,0C8,29.11,25.05,11.72,46,11.72,47.07,11.72,48.16,11.76,49.22,11.85Z"/>
        </g>
    </g>
</svg>
