<?xml version="1.0" encoding="UTF-8"?>
<svg width="15px" height="19px" viewBox="0 0 15 19" version="1.1" xmlns="http://www.w3.org/2000/svg" xmlns:xlink="http://www.w3.org/1999/xlink">
    <!-- Generator: Sketch 59 (86127) - https://sketch.com -->
    <title>Fill 1</title>
    <desc>Created with Sketch.</desc>
    <g id="Page-1" stroke="none" stroke-width="1" fill="none" fill-rule="evenodd">
        <g id="Map-Detail" transform="translate(-63.000000, -1299.000000)" fill="#9B9B9B">
            <g id="Nav" transform="translate(0.000000, 1288.500000)">
                <g id="Schedule" transform="translate(63.000000, 11.000000)">
                    <path d="M10.8333333,0 C11.2933333,0 11.6666667,0.379714286 11.6666667,0.856285714 L13.3325,0.857142857 C14.2533333,0.857142857 15,1.62257143 15,2.57142857 L15,16.2857143 C15,17.2328571 14.2558333,18 13.3325,18 L1.6675,18 C0.746666667,18 0,17.2345714 0,16.2857143 L0,2.57142857 C0,1.62428571 0.744166667,0.857142857 1.6675,0.857142857 L3.33333333,0.857142857 C3.33333333,0.383142857 3.70333333,0 4.16666667,0 C4.62666667,0 5,0.379714286 5,0.856285714 L6.66666667,0.857142857 C6.66666667,0.383142857 7.03666667,0 7.5,0 C7.96,0 8.33333333,0.379714286 8.33333333,0.856285714 L10,0.857142857 C10,0.383142857 10.37,0 10.8333333,0 M8.33333333,2.57142857 C8.33333333,3.04457143 7.96333333,3.42857143 7.5,3.42857143 C7.04,3.42857143 6.66666667,3.04885714 6.66666667,2.57228571 C6.0925,2.57142857 5.52916667,2.57142857 5,2.57142857 C5,3.04457143 4.63,3.42857143 4.16666667,3.42857143 C3.70666667,3.42857143 3.33333333,3.04885714 3.33333333,2.57228571 C2.32666667,2.57142857 1.66666667,2.57142857 1.66666667,2.57142857 L1.6675,16.2857143 L13.3333333,16.2857143 L13.3325,2.57142857 L11.6666667,2.57142857 C11.6666667,3.04457143 11.2966667,3.42857143 10.8333333,3.42857143 C10.3733333,3.42857143 10,3.04885714 10,2.57228571 C9.47083333,2.57142857 8.9075,2.57142857 8.33333333,2.57142857 M5,7.28571429 C5,6.81171429 5.37583333,6.42857143 5.83666667,6.42857143 L9.16333333,6.42857143 C9.625,6.42857143 10,6.80914286 10,7.28571429 C10,7.75885714 9.62416667,8.14285714 9.16333333,8.14285714 L5.83666667,8.14285714 C5.375,8.14285714 5,7.76228571 5,7.28571429 M5,12 C5,11.526 5.37583333,11.1428571 5.83666667,11.1428571 L9.16333333,11.1428571 C9.625,11.1428571 10,11.5234286 10,12 C10,12.4731429 9.62416667,12.8571429 9.16333333,12.8571429 L5.83666667,12.8571429 C5.375,12.8571429 5,12.4765714 5,12" id="Fill-1"></path>
                </g>
            </g>
        </g>
    </g>
</svg>