<?xml version="1.0" encoding="UTF-8"?>
<svg width="8px" height="15px" viewBox="0 0 8 15" version="1.1" xmlns="http://www.w3.org/2000/svg" xmlns:xlink="http://www.w3.org/1999/xlink">
    <!-- Generator: Sketch 58 (84663) - https://sketch.com -->
    <title>Dropdown-Icon</title>
    <desc>Created with Sketch.</desc>
    <defs>
        <linearGradient x1="52.7222222%" y1="0%" x2="47.2777778%" y2="100%" id="linearGradient-1">
            <stop stop-color="#FE0B84" offset="0%"></stop>
            <stop stop-color="#FF5631" offset="100%"></stop>
        </linearGradient>
    </defs>
    <g id="Page-1" stroke="none" stroke-width="1" fill="none" fill-rule="evenodd">
        <g id="Map-Detail" transform="translate(-22.000000, -17.000000)" fill="url(#linearGradient-1)">
            <g id="Top-Nav" transform="translate(0.000000, 17.000000)">
                <g id="Dropdown-Icon" transform="translate(26.000000, 7.500000) rotate(-270.000000) translate(-26.000000, -7.500000) translate(18.500000, 2.500000)">
                    <path d="M4.52512627,-0.0251262658 C5.16945847,-0.0251262658 5.69179293,0.498437507 5.69179293,1.14157192 L5.69179293,8.80817555 C5.69179293,9.45252516 5.17395064,9.97487373 4.52512627,9.97487373 L4.52512627,9.97487373 C3.88079406,9.97487373 3.3584596,9.45130996 3.3584596,8.80817555 L3.3584596,1.14157192 C3.3584596,0.497222305 3.87630189,-0.0251262658 4.52512627,-0.0251262658 L4.52512627,-0.0251262658 Z" id="Combined-Shape" transform="translate(4.525126, 4.974874) rotate(-45.000000) translate(-4.525126, -4.974874) "></path>
                    <path d="M10.2950621,-0.0251262659 C10.9393943,-0.0251262659 11.4617288,0.498437507 11.4617288,1.14157192 L11.4617288,8.80817555 C11.4617288,9.45252516 10.9438865,9.97487373 10.2950621,9.97487373 L10.2950621,9.97487373 C9.65072992,9.97487373 9.12839546,9.45130996 9.12839546,8.80817555 L9.12839546,1.14157192 C9.12839546,0.497222305 9.64623776,-0.0251262659 10.2950621,-0.0251262659 L10.2950621,-0.0251262659 Z" id="Combined-Shape" transform="translate(10.295062, 4.974874) scale(1, -1) rotate(-45.000000) translate(-10.295062, -4.974874) "></path>
                </g>
            </g>
        </g>
    </g>
</svg>