<?xml version="1.0" encoding="UTF-8"?>
<svg width="20px" height="20px" viewBox="0 0 20 20" version="1.1" xmlns="http://www.w3.org/2000/svg" xmlns:xlink="http://www.w3.org/1999/xlink">
    <!-- Generator: Sketch 58 (84663) - https://sketch.com -->
    <title>Fill 1</title>
    <desc>Created with Sketch.</desc>
    <g id="Page-1" stroke="none" stroke-width="1" fill="none" fill-rule="evenodd">
        <g id="Alerts" transform="translate(-357.000000, -120.000000)" fill="#9B9B9B">
            <path d="M367,140 C361.477,140 357,135.523 357,130 C357,124.477 361.477,120 367,120 C372.523,120 377,124.477 377,130 C377,135.523 372.523,140 367,140 M367,138 C371.418,138 375,134.418 375,130 C375,125.582 371.418,122 367,122 C362.582,122 359,125.582 359,130 C359,134.418 362.582,138 367,138 M364.793,133.707 L361.793,130.707 C361.402,130.316 361.402,129.684 361.793,129.293 C362.184,128.902 362.816,128.902 363.207,129.293 L365.5,131.6 L370.293,126.793 C370.684,126.402 371.316,126.402 371.707,126.793 C372.098,127.184 372.098,127.816 371.707,128.207 L366.207,133.707 C365.816,134.098 365.184,134.098 364.793,133.707" id="Fill-1"></path>
        </g>
    </g>
</svg>