<?xml version="1.0" encoding="UTF-8"?>
<svg width="18px" height="18px" viewBox="0 0 18 18" version="1.1" xmlns="http://www.w3.org/2000/svg" xmlns:xlink="http://www.w3.org/1999/xlink">
    <!-- Generator: Sketch 59 (86127) - https://sketch.com -->
    <title>Fill 1</title>
    <desc>Created with Sketch.</desc>
    <g id="Page-1" stroke="none" stroke-width="1" fill="none" fill-rule="evenodd">
        <g id="Manage-Interests" transform="translate(-198.000000, -1231.000000)" fill="#9B9B9B">
            <g id="Group-6" transform="translate(50.000000, 1229.000000)">
                <g id="Nav">
                    <path d="M154.823,13.647 C152.164,13.647 150,11.483 150,8.823 C150,6.164 152.164,4 154.823,4 C157.482,4 159.646,6.164 159.646,8.823 C159.646,11.483 157.482,13.647 154.823,13.647 M164.831,17.623 L160.208,13.001 C160.208,13.001 160.207,13.001 160.207,13 C161.105,11.845 161.646,10.397 161.646,8.823 C161.646,5.061 158.586,2 154.823,2 C151.06,2 148,5.061 148,8.823 C148,12.586 151.06,15.647 154.823,15.647 C156.295,15.647 157.654,15.174 158.77,14.379 C158.78,14.39 158.783,14.404 158.794,14.415 L163.417,19.037 C163.612,19.232 163.868,19.33 164.124,19.33 C164.38,19.33 164.636,19.232 164.831,19.037 C165.221,18.647 165.221,18.013 164.831,17.623" id="Fill-1"></path>
                </g>
            </g>
        </g>
    </g>
</svg>