<?xml version="1.0" encoding="UTF-8"?>
<svg width="20px" height="18px" viewBox="0 0 20 18" version="1.1" xmlns="http://www.w3.org/2000/svg" xmlns:xlink="http://www.w3.org/1999/xlink">
    <!-- Generator: Sketch 58 (84663) - https://sketch.com -->
    <title>Fill 1</title>
    <desc>Created with Sketch.</desc>
    <g id="Page-1" stroke="none" stroke-width="1" fill="none" fill-rule="evenodd">
        <g id="Alerts" transform="translate(-357.000000, -448.000000)" fill="#9B9B9B">
            <path d="M359,453.88692 C359,456.952044 362.061,460.656879 367.006,463.828948 C371.951,460.656879 375,457.031517 375,453.88692 C375,451.719553 373.209,449.962307 371,449.962307 C370,449.962307 369.063,450.320428 368.334,450.961121 L367.372,451.805894 C367.167,451.986426 366.836,451.988389 366.628,451.805894 L365.666,450.961121 C364.937,450.320428 364,449.962307 363,449.962307 C360.791,449.962307 359,451.719553 359,453.88692 M367,449.499202 C368.062,448.567107 369.463,448 371,448 C374.313,448 377,450.636359 377,453.88692 C377,458.631778 371.994,463.207878 367.425,465.892313 C367.192,466.034581 366.811,466.036543 366.578,465.894276 C361.979,463.21867 357,458.631778 357,453.88692 C357,450.636359 359.687,448 363,448 C364.537,448 365.938,448.567107 367,449.499202" id="Fill-1"></path>
        </g>
    </g>
</svg>