<?xml version="1.0" encoding="UTF-8"?>
<svg width="57px" height="57px" viewBox="0 0 57 57" version="1.1" xmlns="http://www.w3.org/2000/svg" xmlns:xlink="http://www.w3.org/1999/xlink">
    <!-- Generator: Sketch 58 (84663) - https://sketch.com -->
    <title>Playon_Logo_Icon</title>
    <desc>Created with Sketch.</desc>
    <defs>
        <path d="M40.325,57 L0.06,57 L0.06,15.2558558 C0.780335264,6.76857131 7.89743673,0.104 16.572,0.104 L40.325,0.104 C49.476,0.104 56.896,7.524 56.896,16.676 L56.896,40.429 C56.896,49.58 49.476,57 40.325,57 Z M30.67,25.305 L30.67,41.464 L36.326,41.464 C39.673,41.464 42.386,38.751 42.386,35.404 L42.386,19.649 C42.386,16.302 39.673,13.589 36.326,13.589 L20.57,13.589 C17.223,13.589 14.511,16.302 14.511,19.649 L14.511,25.305 L30.67,25.305 Z" id="path-1"></path>
        <linearGradient x1="99.8946%" y1="0%" x2="0.105399964%" y2="100%" id="linearGradient-3">
            <stop stop-color="#FE0B84" offset="0%"></stop>
            <stop stop-color="#FF5631" offset="100%"></stop>
        </linearGradient>
        <path d="M6.326,16.464 L0.67,16.464 L0.67,0.305 L12.386,0.305 L12.386,10.404 C12.386,13.751 9.673,16.464 6.326,16.464" id="path-4"></path>
        <linearGradient x1="-261.778764%" y1="20.0946841%" x2="223.846876%" y2="20.0946841%" id="linearGradient-6">
            <stop stop-color="#FAD9CD" offset="0%"></stop>
            <stop stop-color="#F4CAD7" offset="100%"></stop>
        </linearGradient>
        <path d="M16.67,12.305 L0.511,12.305 L0.511,6.649 C0.511,3.302 3.223,0.589 6.57,0.589 L16.67,0.589 L16.67,12.305" id="path-7"></path>
        <linearGradient x1="-89.8013491%" y1="127.71509%" x2="262.299028%" y2="127.71509%" id="linearGradient-9">
            <stop stop-color="#FAD9CD" offset="0%"></stop>
            <stop stop-color="#F4CAD7" offset="100%"></stop>
        </linearGradient>
        <path d="M12.386,12.305 L0.67,12.305 L0.67,0.589 L6.326,0.589 C9.673,0.589 12.386,3.302 12.386,6.649 L12.386,12.305" id="path-10"></path>
        <linearGradient x1="-261.778764%" y1="127.71509%" x2="223.846876%" y2="127.71509%" id="linearGradient-12">
            <stop stop-color="#FFF9F7" offset="0%"></stop>
            <stop stop-color="#FEF5F7" offset="100%"></stop>
        </linearGradient>
    </defs>
    <g id="Page-1" stroke="none" stroke-width="1" fill="none" fill-rule="evenodd">
        <g id="Login" transform="translate(-179.000000, -112.000000)">
            <g id="Playon_Logo_Icon" transform="translate(179.000000, 112.000000)">
                <g id="Group-3">
                    <mask id="mask-2" fill="white">
                        <use xlink:href="#path-1"></use>
                    </mask>
                    <g id="Clip-2"></g>
                    <polygon id="Fill-1" fill="url(#linearGradient-3)" mask="url(#mask-2)" points="0.06 57 56.896 57 56.896 0.104 0.06 0.104"></polygon>
                </g>
                <g id="Group-6" transform="translate(30.000000, 25.000000)">
                    <mask id="mask-5" fill="white">
                        <use xlink:href="#path-4"></use>
                    </mask>
                    <g id="Clip-5"></g>
                    <path d="M6.326,16.464 L0.67,16.464 L0.67,0.305 L12.386,0.305 L12.386,10.404 C12.386,13.751 9.673,16.464 6.326,16.464" id="Fill-4" fill="url(#linearGradient-6)" mask="url(#mask-5)"></path>
                </g>
                <g id="Group-9" transform="translate(14.000000, 13.000000)">
                    <mask id="mask-8" fill="white">
                        <use xlink:href="#path-7"></use>
                    </mask>
                    <g id="Clip-8"></g>
                    <path d="M16.67,12.305 L0.511,12.305 L0.511,6.649 C0.511,3.302 3.223,0.589 6.57,0.589 L16.67,0.589 L16.67,12.305" id="Fill-7" fill="url(#linearGradient-9)" mask="url(#mask-8)"></path>
                </g>
                <g id="Group-12" transform="translate(30.000000, 13.000000)">
                    <mask id="mask-11" fill="white">
                        <use xlink:href="#path-10"></use>
                    </mask>
                    <g id="Clip-11"></g>
                    <path d="M12.386,12.305 L0.67,12.305 L0.67,0.589 L6.326,0.589 C9.673,0.589 12.386,3.302 12.386,6.649 L12.386,12.305" id="Fill-10" fill="url(#linearGradient-12)" mask="url(#mask-11)"></path>
                </g>
                <path d="M25.923,35.758 C25.923,38.909 23.368,41.464 20.217,41.464 C17.065,41.464 14.511,38.909 14.511,35.758 C14.511,32.607 17.065,30.052 20.217,30.052 C23.368,30.052 25.923,32.607 25.923,35.758" id="Fill-13" fill="#FFFFFE"></path>
            </g>
        </g>
    </g>
</svg>