<?xml version="1.0" encoding="UTF-8"?>
<svg width="252px" height="58px" viewBox="0 0 252 58" version="1.1" xmlns="http://www.w3.org/2000/svg" xmlns:xlink="http://www.w3.org/1999/xlink">
    <!-- Generator: Sketch 58 (84663) - https://sketch.com -->
    <title>Logo</title>
    <desc>Created with Sketch.</desc>
    <defs>
        <path d="M16.656,0.814 C7.457,0.814 0,8.27 0,17.47 L0,17.47 L0,58 L16.689,58 L22.825,58 L40.531,58 C49.73,58 57.187,50.544 57.187,41.344 L57.187,41.344 L57.187,17.47 C57.187,8.27 49.73,0.814 40.531,0.814 L40.531,0.814 L16.656,0.814 Z" id="path-1"></path>
        <linearGradient x1="0%" y1="49.9992822%" x2="99.999687%" y2="49.9992822%" id="linearGradient-3">
            <stop stop-color="#FF5631" offset="0%"></stop>
            <stop stop-color="#FD0B83" offset="100%"></stop>
        </linearGradient>
    </defs>
    <g id="Page-1" stroke="none" stroke-width="1" fill="none" fill-rule="evenodd">
        <g id="Intro" transform="translate(-81.000000, -219.000000)">
            <g id="Hero">
                <g id="Logo" transform="translate(81.000000, 219.000000)">
                    <g id="Group-3">
                        <mask id="mask-2" fill="white">
                            <use xlink:href="#path-1"></use>
                        </mask>
                        <g id="Clip-2"></g>
                        <path d="M16.656,0.814 C7.457,0.814 0,8.27 0,17.47 L0,17.47 L0,58 L16.689,58 L22.825,58 L40.531,58 C49.73,58 57.187,50.544 57.187,41.344 L57.187,41.344 L57.187,17.47 C57.187,8.27 49.73,0.814 40.531,0.814 L40.531,0.814 L16.656,0.814 Z" id="Fill-1" fill="url(#linearGradient-3)" mask="url(#mask-2)"></path>
                    </g>
                    <g id="Group-22" transform="translate(15.000000, 15.000000)" fill="#FFFFFF">
                        <path d="M17.0423256,0.3673 L17.0423256,28.3853 L22.8002103,28.3853 C26.2073385,28.3853 28.9682872,25.6583 28.9682872,22.2943 L28.9682872,6.4583 C28.9682872,3.0943 26.2073385,0.3673 22.8002103,0.3673 L17.0423256,0.3673 Z" id="Fill-4"></path>
                        <path d="M28.9686923,12.1427 L0.591487179,12.1427 L0.591487179,6.4577 C0.591487179,3.0937 3.35344872,0.3677 6.76057692,0.3677 L22.8006154,0.3677 C26.2067308,0.3677 28.9686923,3.0937 28.9686923,6.4577 L28.9686923,12.1427 Z" id="Fill-6"></path>
                        <path d="M71.9121808,14.508 C74.4705654,14.508 75.9989115,13.659 75.9989115,11.182 C75.9989115,9.031 74.3601679,8.018 72.2919885,8.018 C71.3571551,8.018 70.8628987,8.036 70.2967321,8.085 L70.2967321,14.436 C70.9378474,14.487 71.4817321,14.508 71.9121808,14.508 Z M72.8247321,20.258 C72.0256167,20.258 71.1616808,20.233 70.2967321,20.187 L70.2967321,27.285 L63.2252192,27.285 L63.2252192,2.399 C66.1725269,2.195 68.4108603,2.046 72.1785526,2.083 C78.383091,2.144 82.9985141,4.186 83.0331453,10.721 C83.0673859,17.405 78.5431167,20.258 72.8247321,20.258 L72.8247321,20.258 Z" id="Fill-8"></path>
                        <polygon id="Fill-10" points="109.533399 21.5421 109.533399 27.2851 93.22395 27.2851 93.22395 2.3981 100.219501 2.3981 100.219501 21.5421"></polygon>
                        <path d="M131.486587,19.5148 L129.364728,14.4068 L128.743869,12.4848 L128.094651,14.4028 L126.211818,19.5148 L131.486587,19.5148 Z M133.450446,24.2448 L124.469767,24.2448 L123.3506,27.2858 L116.339856,27.2858 L126.753677,2.3988 L131.1321,2.3988 L141.9946,27.2858 L134.714446,27.2858 L133.450446,24.2448 Z" id="Fill-12"></path>
                        <polygon id="Fill-14" points="154.227547 17.713 145.316753 2.399 153.067868 2.399 157.934471 11.456 162.679535 2.399 170.024509 2.399 161.223099 17.804 161.223099 27.285 154.227547 27.285"></polygon>
                        <path d="M195.916455,14.8234 C195.916455,10.6304 193.647737,8.0664 189.871942,8.0664 C186.09716,8.0664 183.826417,10.6304 183.826417,14.8234 C183.826417,18.9444 186.09716,21.4674 189.871942,21.4674 C193.647737,21.4674 195.916455,18.9444 195.916455,14.8234 M176.489545,14.8234 C176.489545,6.7044 182.222109,1.7984 189.871942,1.7984 C196.730763,1.7984 203.25434,6.0614 203.25434,14.8234 C203.25434,22.8714 197.520763,27.7354 189.871942,27.7354 C183.014135,27.7354 176.489545,23.5054 176.489545,14.8234" id="Fill-16"></path>
                        <polygon id="Fill-18" points="214.015659 2.3986 217.129069 2.3986 229.640441 14.1476 229.75489 14.1476 229.75489 2.3986 236.673467 2.3986 236.673467 27.2856 233.57221 27.2856 221.047672 15.1616 220.934236 15.1616 220.934236 27.2856 214.015659 27.2856"></polygon>
                        <path d="M12.210159,22.6496 C12.210159,25.8166 9.6092359,28.3846 6.40163333,28.3846 C3.19301795,28.3846 0.592094872,25.8166 0.592094872,22.6496 C0.592094872,19.4816 3.19301795,16.9136 6.40163333,16.9136 C9.6092359,16.9136 12.210159,19.4816 12.210159,22.6496" id="Fill-20"></path>
                    </g>
                </g>
            </g>
        </g>
    </g>
</svg>