<?xml version="1.0" encoding="UTF-8"?>
<svg width="16px" height="20px" viewBox="0 0 16 20" version="1.1" xmlns="http://www.w3.org/2000/svg" xmlns:xlink="http://www.w3.org/1999/xlink">
    <!-- Generator: Sketch 58 (84663) - https://sketch.com -->
    <title>Group 3</title>
    <desc>Created with Sketch.</desc>
    <g id="Page-1" stroke="none" stroke-width="1" fill="none" fill-rule="evenodd">
        <g id="Alerts" transform="translate(-361.000000, -315.000000)" fill="#9B9B9B">
            <g id="Group-3" transform="translate(361.000000, 315.000000)">
                <path d="M12.4595,16.3945 C10.8415,18.3145 8.8025,19.9995 8.0005,19.9995 C7.1975,19.9995 5.1585,18.3145 3.5405,16.3945 C1.3445,13.7885 0.0005,10.9215 0.0005,7.9995 C0.0005,3.5815 3.5815,-0.0005 8.0005,-0.0005 C12.4185,-0.0005 16.0005,3.5815 16.0005,7.9995 C16.0005,10.9215 14.6555,13.7885 12.4595,16.3945 M7.3245,17.3535 C7.6215,17.5995 8.0005,17.8745 8.0005,17.8745 C8.0005,17.8745 8.4215,17.5645 8.6755,17.3535 C9.4135,16.7445 10.2065,15.9645 10.9295,15.1055 C12.8495,12.8275 14.0005,10.3745 14.0005,7.9995 C14.0005,4.6865 11.3135,1.9995 8.0005,1.9995 C4.6865,1.9995 2.0005,4.6865 2.0005,7.9995 C2.0005,10.3745 3.1505,12.8275 5.0705,15.1055 C5.7935,15.9645 6.5865,16.7445 7.3245,17.3535 M5.0005,7.9995 C5.0005,6.3435 6.3435,4.9995 8.0005,4.9995 C9.6565,4.9995 11.0005,6.3435 11.0005,7.9995 C11.0005,9.6565 9.6565,10.9995 8.0005,10.9995 C6.3435,10.9995 5.0005,9.6565 5.0005,7.9995 M9.0005,7.9995 C9.0005,7.4475 8.5525,6.9995 8.0005,6.9995 C7.4475,6.9995 7.0005,7.4475 7.0005,7.9995 C7.0005,8.5525 7.4475,8.9995 8.0005,8.9995 C8.5525,8.9995 9.0005,8.5525 9.0005,7.9995" id="Fill-1"></path>
            </g>
        </g>
    </g>
</svg>