<?xml version="1.0" encoding="UTF-8"?>
<svg width="14px" height="19px" viewBox="0 0 14 19" version="1.1" xmlns="http://www.w3.org/2000/svg" xmlns:xlink="http://www.w3.org/1999/xlink">
    <!-- Generator: Sketch 59 (86127) - https://sketch.com -->
    <title>Fill 1</title>
    <desc>Created with Sketch.</desc>
    <g id="Page-1" stroke="none" stroke-width="1" fill="none" fill-rule="evenodd">
        <g id="Map-Detail" transform="translate(-338.000000, -1299.000000)" fill="#9B9B9B">
            <g id="Nav" transform="translate(0.000000, 1288.500000)">
                <path d="M342.8125,15.2857143 L342.8125,11.8545714 C342.8125,11.3822857 343.201,11 343.6875,11 L346.3125,11 C346.7955,11 347.1875,11.3831429 347.1875,11.8545714 L347.1875,15.2857143 L350.24825,15.2857143 C351.216,15.2857143 352,16.0528571 352,17.0017143 L352,27.284 C352,28.232 351.216875,29 350.24825,29 L339.75175,29 C338.784,29 338,28.2328571 338,27.284 L338,17.0017143 C338,16.0537143 338.783125,15.2857143 339.75175,15.2857143 L342.8125,15.2857143 Z M339.75,17 L339.75,27.2857143 L350.25,27.2857143 L350.25,17 L347.1875,17 L347.1875,17.0025714 C347.1875,17.474 346.799,17.8571429 346.3125,17.8571429 L343.6875,17.8571429 C343.2045,17.8571429 342.8125,17.4731429 342.8125,17.0025714 L342.8125,17 L339.75,17 Z M343.25,21.2857143 C343.25,20.3394286 344.034,19.5714286 345,19.5714286 C345.966,19.5714286 346.75,20.3394286 346.75,21.2857143 C346.75,21.818 346.502375,22.5645714 346.113875,23.1157143 L347.232125,23.6642857 C347.449125,23.7705714 347.625,24.0474286 347.625,24.2891429 L347.625,24.7142857 C347.625,25.1874286 347.230375,25.5714286 346.7465,25.5714286 L343.2535,25.5714286 C342.76875,25.5714286 342.375,25.1908571 342.375,24.7142857 L342.375,24.2891429 C342.375,24.0508571 342.547375,23.7722857 342.762625,23.6668571 L343.887,23.1174286 C343.497625,22.5654286 343.25,21.8188571 343.25,21.2857143 L343.25,21.2857143 Z M344.5625,16.1428571 L345.4375,16.1428571 L345.4375,12.7142857 L344.5625,12.7142857 L344.5625,16.1428571 Z" id="Fill-1"></path>
            </g>
        </g>
    </g>
</svg>