<?xml version="1.0" encoding="UTF-8"?>
<svg width="9px" height="14px" viewBox="0 0 9 14" version="1.1" xmlns="http://www.w3.org/2000/svg" xmlns:xlink="http://www.w3.org/1999/xlink">
    <!-- Generator: Sketch 58 (84663) - https://sketch.com -->
    <title>Dropdown-Icon Copy 2</title>
    <desc>Created with Sketch.</desc>
    <g id="Page-1" stroke="none" stroke-width="1" fill="none" fill-rule="evenodd">
        <g id="Calendar" transform="translate(-386.000000, -819.000000)" fill="#FE0B84">
            <g id="Dropdown-Icon-Copy-2" transform="translate(390.500000, 826.000000) rotate(-90.000000) translate(-390.500000, -826.000000) translate(383.000000, 821.000000)">
                <path d="M4.52512627,-0.0251262658 C5.16945847,-0.0251262658 5.69179293,0.498437507 5.69179293,1.14157192 L5.69179293,8.80817555 C5.69179293,9.45252516 5.17395064,9.97487373 4.52512627,9.97487373 L4.52512627,9.97487373 C3.88079406,9.97487373 3.3584596,9.45130996 3.3584596,8.80817555 L3.3584596,1.14157192 C3.3584596,0.497222305 3.87630189,-0.0251262658 4.52512627,-0.0251262658 L4.52512627,-0.0251262658 Z" id="Combined-Shape" transform="translate(4.525126, 4.974874) rotate(-45.000000) translate(-4.525126, -4.974874) "></path>
                <path d="M10.2950621,-0.0251262659 C10.9393943,-0.0251262659 11.4617288,0.498437507 11.4617288,1.14157192 L11.4617288,8.80817555 C11.4617288,9.45252516 10.9438865,9.97487373 10.2950621,9.97487373 L10.2950621,9.97487373 C9.65072992,9.97487373 9.12839546,9.45130996 9.12839546,8.80817555 L9.12839546,1.14157192 C9.12839546,0.497222305 9.64623776,-0.0251262659 10.2950621,-0.0251262659 L10.2950621,-0.0251262659 Z" id="Combined-Shape" transform="translate(10.295062, 4.974874) scale(1, -1) rotate(-45.000000) translate(-10.295062, -4.974874) "></path>
            </g>
        </g>
    </g>
</svg>