<svg xmlns="http://www.w3.org/2000/svg" viewBox="0 0 92 60">
    <title>Asset 1</title>
    <g id="Layer_2" data-name="Layer 2">
        <g id="Layer_1-2" data-name="Layer 1">
            <path id="_Compound_Path_" data-name="&lt;Compound Path&gt;"
                  d="M62.33,39.53a14,14,0,1,0-14-14A14,14,0,0,0,62.33,39.53Zm0-22a8,8,0,1,1-8,8A8,8,0,0,1,62.33,17.53ZM15.67,19a3,3,0,0,1,3-3H36.11a3,3,0,0,1,0,6H18.67A3,3,0,0,1,15.67,19ZM36.11,33H18.67a3,3,0,0,1,0-6H36.11a3,3,0,0,1,0,6Zm-4.37,8a3,3,0,0,1-3,3H18.67a3,3,0,0,1,0-6H28.74A3,3,0,0,1,31.74,41ZM92,6.59A6.59,6.59,0,0,0,85.41,0H6.59A6.59,6.59,0,0,0,0,6.59V53.41A6.59,6.59,0,0,0,6.59,60H85.41A6.59,6.59,0,0,0,92,53.41ZM8,8H84V49.73c-4-4.23-11.71-7-14.61-8a2.93,2.93,0,0,0-2,0l-5.1,1.8-5.11-1.8a3,3,0,0,0-2,.09C51.91,42.94,42.49,46,38.93,52H8ZM47.75,52C50,50,53,49,56.21,47.83l5.12,1.76a3,3,0,0,0,2,0l5.11-1.71C71.62,49,74.62,50,76.9,52Z"/>
        </g>
    </g>
</svg>
