<?xml version="1.0" encoding="UTF-8"?>
<svg width="20px" height="20px" viewBox="0 0 20 20" version="1.1" xmlns="http://www.w3.org/2000/svg" xmlns:xlink="http://www.w3.org/1999/xlink">
    <!-- Generator: Sketch 58 (84663) - https://sketch.com -->
    <title>Group 6</title>
    <desc>Created with Sketch.</desc>
    <defs>
        <polygon id="path-1" points="0.0001 0.0001 20 0.0001 20 20 0.0001 20"></polygon>
    </defs>
    <g id="Page-1" stroke="none" stroke-width="1" fill="none" fill-rule="evenodd">
        <g id="Alerts" transform="translate(-357.000000, -217.000000)">
            <g id="Group-6" transform="translate(357.000000, 217.000000)">
                <g id="Group-3">
                    <mask id="mask-2" fill="white">
                        <use xlink:href="#path-1"></use>
                    </mask>
                    <g id="Clip-2"></g>
                    <path d="M10.0001,20.0001 C4.4771,20.0001 0.0001,15.5231 0.0001,10.0001 C0.0001,4.4771 4.4771,0.0001 10.0001,0.0001 C15.5231,0.0001 20.0001,4.4771 20.0001,10.0001 C20.0001,15.5231 15.5231,20.0001 10.0001,20.0001 M10.0001,18.0001 C14.4181,18.0001 18.0001,14.4181 18.0001,10.0001 C18.0001,5.5821 14.4181,2.0001 10.0001,2.0001 C5.5821,2.0001 2.0001,5.5821 2.0001,10.0001 C2.0001,14.4181 5.5821,18.0001 10.0001,18.0001" id="Fill-1" fill="#9B9B9B" mask="url(#mask-2)"></path>
                </g>
                <path d="M8.4581,11.0445 L8.4581,6.2665 C8.4581,5.7135 8.9051,5.2665 9.4581,5.2665 C10.0101,5.2665 10.4581,5.7135 10.4581,6.2665 L10.4481,10.0545 L12.7001,10.0445 C13.2521,10.0445 13.7001,10.4925 13.7001,11.0445 C13.7001,11.5965 13.2531,12.0445 12.7011,12.0445 L9.4581,12.0445 C8.9061,12.0445 8.4581,11.5965 8.4581,11.0445" id="Fill-4" fill="#9B9B9B"></path>
            </g>
        </g>
    </g>
</svg>